<?xml version="1.0" encoding="utf-8"?>
<!-- Generator: Adobe Illustrator 26.0.2, SVG Export Plug-In . SVG Version: 6.00 Build 0)  -->
<svg version="1.1" id="레이어_1" xmlns="http://www.w3.org/2000/svg" xmlns:xlink="http://www.w3.org/1999/xlink" x="0px"
	 y="0px" viewBox="0 0 500 500" style="enable-background:new 0 0 500 500;" xml:space="preserve">
<style type="text/css">
	.st0{fill:none;stroke:#000000;stroke-width:0.25;stroke-miterlimit:10;}
	.st1{stroke:#FFFFFF;stroke-width:0.25;stroke-miterlimit:10;}
	.st2{fill:#FFFFFF;stroke:#000000;stroke-width:0.25;stroke-miterlimit:10;}
</style>
<line class="st0" x1="316.7" y1="257.8" x2="316.7" y2="257.8"/>
<line class="st0" x1="387.5" y1="248.7" x2="387.5" y2="248.7"/>
<polygon class="st1" points="239.7,259.4 239.7,290.2 347.7,290.2 329,259.4 "/>
<g>
	<rect x="381.2" y="261.4" class="st1" width="39.1" height="30.8"/>
</g>
<polygon class="st2" points="10.7,373.5 42.8,373.5 10.7,342.7 "/>
<polygon class="st1" points="10.7,311 10.7,324.1 42.8,354.9 42.8,280.2 "/>
<polygon class="st1" points="79.9,260.4 42.8,260.4 111.5,374.3 148.6,374.3 "/>
<path class="st1" d="M250,190v20c5-0.1,10-3.7,10-10v0C260,193.9,255.1,190.1,250,190z"/>
<path class="st2" d="M241.5,194.7L241.5,194.7c-1.6,2.6-2,5.8-1,8.7v0c1.6,4.6,5.5,6.7,9.4,6.7v-20
	C246.8,190,243.6,191.4,241.5,194.7z"/>
<polygon class="st2" points="379.2,365.9 350.2,293.6 342.4,274.3 299.7,167.9 285.9,133.6 285.9,218.6 349,375.8 "/>
<polygon class="st1" points="164.6,125.9 134.5,149.2 50.3,214.4 35,226.2 10.7,245.1 29,269.6 164.6,164.6 "/>
<polygon class="st1" points="139.3,259.4 102.2,259.4 170.9,373.3 208,373.3 "/>
<polygon class="st2" points="349.1,125 349.1,375.8 381.2,375.8 381.2,280.4 381.2,169.6 381.2,153.5 "/>
<polygon class="st2" points="10.7,124.2 10.7,190.1 10.7,190.5 10.7,290.6 42.8,259.5 42.8,221.5 42.8,221.1 42.8,155.2 "/>
<polygon class="st1" points="419.9,261.4 456.9,322.9 456.9,292.1 456.9,261.4 "/>
<polygon class="st2" points="111.7,374.3 148.8,374.3 217.5,260.4 180.4,260.4 "/>
<polygon class="st2" points="170.8,373.3 207.9,373.3 276.5,259.4 239.5,259.4 "/>
<g>
	<polygon class="st2" points="420.8,262.5 420.4,262.5 420.4,323.3 452,375.7 489.1,375.7 	"/>
	<path class="st2" d="M489.3,375.8h-37.4l0-0.1l-31.6-52.4v-61h0.6l0,0.1L489.3,375.8z M452.1,375.6h36.8l-68.1-113h-0.2v60.7
		L452.1,375.6z"/>
</g>
</svg>
